<?xml version="1.0" encoding="utf-8"?>
<!-- Generator: Adobe Illustrator 24.0.0, SVG Export Plug-In . SVG Version: 6.00 Build 0)  -->
<svg version="1.1" id="Layer_1" xmlns="http://www.w3.org/2000/svg" xmlns:xlink="http://www.w3.org/1999/xlink" x="0px" y="0px"
	 viewBox="0 0 500 500" style="enable-background:new 0 0 500 500;" xml:space="preserve">
<style type="text/css">
	.st0{fill:#008BFE;}
	.st1{fill:#FFFFFF;}
</style>
<circle class="st0" cx="250.5" cy="250" r="250"/>
<path class="st1" d="M293,416.2c-1.1,0-2.2-0.1-3.4-0.1c-52.4,0-104.8,0-157.2,0c0-22,0-44-0.2-66c0-3,1.7-2.5,3.4-2.5
	c50.9,0,101.9,0,152.8,0c4.1,0,8.1,0,12.1-0.9c11.7-2.6,18.4-10.1,20.5-21.8c1.2-6.9,1.1-13.9-0.7-20.7
	c-2.9-11.3-11.7-18.4-23.9-19.4c-3.4-0.3-6.7-0.4-10.1-0.4c-28.8-0.2-57.6,0.5-86.3-0.4c-13.5-0.4-26.8-3-39.3-8.2
	c-23.5-9.8-38.4-27.4-44.9-51.6c-7.4-27.4-7.5-55.1,0.8-82.4c9.2-30.3,30.6-47.6,61.1-54.4c10.6-2.4,21.3-3.3,32.1-3.4
	c50.1,0,100.3,0,150.4-0.1c3.1,0,3.9,0.8,3.9,3.8c-0.1,20.4-0.2,40.9,0,61.3c0,3.1-0.9,3.6-3.8,3.6c-49.2-0.1-98.5-0.1-147.7-0.1
	c-4.4,0-8.7,0.2-13,1.3c-10,2.5-16.3,8.6-18.8,18.5c-2,7.7-2,15.6-0.1,23.3c2.8,11.4,11,18.2,23,19.5c3.2,0.4,6.5,0.5,9.7,0.5
	c28.4,0.1,56.9-0.1,85.3,0.2c14.8,0.2,29.3,3,42.9,8.9c22.6,9.8,37,27,43.5,50.5c7.5,26.9,7.6,54.2,0,81.1c-8.8,31-30,49-61.1,56.2
	C313.8,415,303.4,415.9,293,416.2z"/>
</svg>
